# xmcd
#
# Track frame offsets:
#	150
#	16608
#	32838
#	50575
#	70011
#	90526
#	95421
#	115176
#	134455
#	159016
#	177993
#	195587
#	213820
#	229418
#
# Disc length: 3272 seconds
#
# Revision: 0
# Processed by: cddbd v1.5.1PL0 Copyright (c) Steve Scherf et al.
# Submitted via: EasyCDDAExtractor 8.0.2.1
#
DISCID=ae0cc60e
DTITLE=Outlandish - Bread and Barrels of Water
DYEAR=1900
DGENRE=Pop/Funk
TTITLE0=guantanamo
TTITLE1=perlo
TTITLE2=walou
TTITLE3=aicha
TTITLE4=gritty
TTITLE5=interlude
TTITLE6=if only
TTITLE7=fatimas hand
TTITLE8=el moro
TTITLE9=eyes never dry
TTITLE10=dirty, diry east
TTITLE11=life is a loom
TTITLE12=belly dance
TTITLE13=Surprise
EXTD=
EXTT0=
EXTT1=
EXTT2=
EXTT3=
EXTT4=
EXTT5=
EXTT6=
EXTT7=
EXTT8=
EXTT9=
EXTT10=
EXTT11=
EXTT12=
EXTT13=
PLAYORDER=
